<?xml version="1.0" standalone="no"?>
<!DOCTYPE svg PUBLIC "-//W3C//DTD SVG 20010904//EN"
 "http://www.w3.org/TR/2001/REC-SVG-20010904/DTD/svg10.dtd">
<svg version="1.0" xmlns="http://www.w3.org/2000/svg"
 width="16.000000pt" height="16.000000pt" viewBox="0 0 16.000000 16.000000"
 preserveAspectRatio="xMidYMid meet">
<metadata>
Created by potrace 1.11, written by Peter Selinger 2001-2013
</metadata>
<g transform="translate(0.000000,16.000000) scale(0.002286,-0.002286)"
fill="#000000" stroke="none">
<path d="M3355 5902 c-77 -118 -194 -298 -260 -399 -66 -101 -183 -280 -260
-398 -129 -199 -202 -311 -421 -646 -45 -68 -153 -234 -241 -369 -88 -135
-202 -310 -255 -390 -52 -80 -227 -347 -388 -595 -161 -247 -315 -483 -342
-523 -26 -41 -46 -77 -44 -80 2 -4 70 -52 150 -107 81 -55 182 -125 225 -155
43 -30 196 -136 340 -235 144 -99 392 -270 551 -380 160 -110 333 -229 385
-265 53 -36 160 -110 238 -164 242 -168 444 -306 460 -312 9 -3 42 13 79 39
34 24 92 64 128 88 36 24 67 46 70 49 3 3 34 25 70 49 64 44 325 223 450 310
36 24 106 73 155 107 50 34 110 75 135 93 25 17 90 62 145 99 55 37 123 84
150 103 44 31 133 93 331 229 99 68 209 144 254 175 25 17 125 87 223 154 97
67 177 124 177 126 0 2 -17 30 -38 62 -22 32 -74 112 -117 178 -43 66 -110
170 -150 230 -238 364 -328 502 -390 598 -39 59 -124 190 -190 290 -66 101
-178 273 -250 383 -71 109 -184 282 -250 384 -67 102 -149 228 -183 280 -34
52 -66 102 -72 110 -5 8 -52 80 -104 160 -93 143 -160 245 -371 570 -215 329
-235 359 -242 363 -5 3 -71 -92 -148 -211z"/>
</g>
</svg>
